<svg width="62" height="62" viewBox="0 0 62 62" fill="none" xmlns="http://www.w3.org/2000/svg">
<rect width="62" height="62" fill="white"/>
<path d="M34.5474 24.3959C34.5094 24.3103 34.4715 24.2246 34.4336 24.1484Z" fill="#E01E26"/>
<path d="M51.9238 17.75L40.2992 44.0039H36.1842L31.1779 31.905L26.1715 44.0039H22.0565L10.4414 17.75H17.3725L24.4364 33.0283L27.6791 24.7561L27.8972 24.204C27.9067 24.185 27.9162 24.1659 27.9256 24.1469C28.6842 22.5572 29.9737 22.2431 31.1968 22.2431C32.382 22.2431 33.6052 22.4239 34.4396 24.1469C34.4775 24.223 34.5154 24.3087 34.5533 24.3944C34.5533 24.4039 34.5628 24.4134 34.5628 24.4229L34.6292 24.5848L38.071 33.1044L44.9927 17.75H51.9238V17.75Z" fill="#E01E26"/>
<path d="M27.9158 24.1484C27.9061 24.1677 27.8964 24.1869 27.8867 24.2061L27.9158 24.1484Z" fill="#E01E26"/>
<path d="M27.6797 24.7552C27.7461 24.5553 27.8124 24.3745 27.8978 24.2031L27.6797 24.7552Z" fill="#E01E26"/>
</svg>
