<svg width="23" height="22" viewBox="0 0 23 22" fill="none" xmlns="http://www.w3.org/2000/svg">
<path d="M10.9627 12.863L11.0325 12.9763C11.2624 13.3534 10.9627 13.7348 10.5276 13.7348H10.3384C10.1457 13.7348 9.96449 13.6324 9.86191 13.466L9.38756 12.7823L8.75606 11.8182L8.72841 11.7702C8.52179 11.4854 8.60618 11.5457 8.1813 11.5457H7.11837V13.7348H6.02197V8.26172H9.45958C9.94485 8.26172 10.3836 8.42665 10.7008 8.69256C11.018 8.95848 11.2151 9.32611 11.2151 9.73298C11.2151 10.3266 11.106 11.0887 10.4978 11.3249C10.3399 11.3881 10.1704 11.4258 9.99287 11.4418L10.9612 12.863H10.9627ZM9.49523 10.6266C9.58326 10.6266 9.67057 10.6099 9.7506 10.5765C9.97541 10.4951 10.1224 10.2561 10.1224 9.95458C10.1224 9.6843 10.0038 9.56152 9.93685 9.50339C9.859 9.43655 9.71204 9.3559 9.49596 9.3559H7.11983V10.6332L9.49596 10.6266H9.49523Z" fill="#2F2222"/>
<path d="M4.6258 13.7348V11.5428H1.7935V13.7348H0.599609V8.26172H1.7935V10.5133H4.6258V8.26172H5.81969V13.7348H4.6258Z" fill="#2F2222"/>
<path d="M21.6233 9.3559C21.9202 9.3559 22.1603 9.11106 22.1603 8.80881C22.1603 8.50657 21.9195 8.26172 21.6233 8.26172C21.3272 8.26172 21.0864 8.50657 21.0864 8.80881C21.0864 9.11106 21.3272 9.3559 21.6233 9.3559Z" fill="#2F2222"/>
<path d="M20.9167 9.28107H19.2463C18.4416 9.28107 18.0393 9.42274 18.0393 9.70537V10.0846C18.0393 10.3527 18.4642 10.4864 19.3132 10.4864H19.8385C20.1986 10.4864 20.526 10.5169 20.82 10.5787C21.1139 10.6404 21.362 10.7298 21.5642 10.8482C21.7665 10.9667 21.9236 11.1112 22.0342 11.2834C22.1455 11.4556 22.2008 11.6525 22.2008 11.8734V12.2425C22.2008 12.5476 22.1543 12.7961 22.0604 12.9879C21.9666 13.1797 21.8232 13.3309 21.6312 13.442C21.4384 13.5532 21.1925 13.6287 20.8942 13.6709C20.5959 13.7123 20.2387 13.7334 19.824 13.7334H17.3547C17.0702 13.7334 16.8403 13.503 16.8403 13.2197C16.8403 12.9356 17.071 12.706 17.3547 12.706H20.0015C20.673 12.706 21.0084 12.5731 21.0084 12.3064V11.9439C21.0084 11.6583 20.6257 11.5152 19.8603 11.5152H18.9429C18.6468 11.5152 18.3703 11.4832 18.1135 11.4186C17.8567 11.3546 17.6348 11.2631 17.4471 11.1447C17.2594 11.0262 17.1124 10.8838 17.0062 10.7182C16.9 10.5525 16.8469 10.3687 16.8469 10.166V9.70683C16.8469 9.45471 16.892 9.23748 16.9837 9.05438C17.0753 8.87202 17.2216 8.7209 17.4245 8.60247C17.6268 8.48404 17.8887 8.39758 18.2096 8.34309C18.5304 8.2886 18.9225 8.26172 19.3867 8.26172H20.916V9.28252L20.9167 9.28107Z" fill="#2F2222"/>
<path d="M11.418 13.7348L11.4194 8.53417V8.26172H12.6097L12.6322 8.30095L14.0138 11.2377H14.0429L15.4216 8.30894L15.4478 8.26172H16.6388V13.7348H15.4449L15.4492 11.0589L14.9356 12.1502H14.9341C14.857 12.3217 14.7123 12.4626 14.4947 12.544C14.3652 12.592 14.2102 12.6196 14.0291 12.6196C13.6799 12.6196 13.402 12.5019 13.239 12.3217C13.2303 12.3079 13.223 12.2933 13.2157 12.2788C13.1757 12.1982 13.1277 12.1023 13.124 12.095L12.9829 11.808L12.6126 10.9986V13.7348H11.418Z" fill="#2F2222"/>
</svg>
