<svg width="23" height="22" viewBox="0 0 23 22" fill="none" xmlns="http://www.w3.org/2000/svg">
<path d="M20.6082 8.92435C20.5508 8.92435 20.5021 8.92435 20.4534 8.92435C19.3236 8.92435 18.1938 8.92435 17.0639 8.92435C16.7875 8.92435 16.5564 9.05821 16.4086 9.27379C16.28 9.45982 16.24 9.68583 16.3599 9.92227C16.4086 10.0179 16.4399 10.1205 16.5164 10.2056C16.6502 10.3569 16.831 10.4108 17.0118 10.416C17.6845 10.4317 18.3572 10.423 19.0281 10.4351C19.1915 10.4386 19.3584 10.4751 19.5165 10.5238C19.6904 10.576 19.8555 10.6577 20.0241 10.7272C20.2761 10.8298 20.4708 11.0054 20.6151 11.2296C20.7924 11.5043 20.9419 11.7929 20.9436 12.1354C20.9436 12.1945 21.0062 12.2554 20.9992 12.311C20.9784 12.4883 20.9558 12.6692 20.9036 12.8378C20.8515 13.0064 20.7768 13.1698 20.6916 13.3246C20.5265 13.6253 20.3439 13.8931 19.9876 14.0304C19.5287 14.2095 19.0629 14.239 18.5831 14.2373C17.4707 14.2321 16.3599 14.2373 15.2475 14.2373C15.0684 14.2373 15.0702 14.2321 15.058 14.053C15.0406 13.794 15.0093 13.5367 14.9937 13.2794C14.9833 13.0986 14.9954 13.0934 15.1727 13.0934C16.2748 13.0934 17.3785 13.0934 18.4806 13.0934C18.6405 13.0934 18.8004 13.0899 18.9603 13.0864C19.2628 13.0777 19.5044 12.8395 19.5287 12.5388C19.5374 12.4223 19.5809 12.318 19.5374 12.1876C19.4505 11.9251 19.2767 11.7686 19.0316 11.6712C18.9169 11.626 18.8021 11.6417 18.6805 11.6469C18.265 11.666 17.8479 11.666 17.4324 11.6556C17.1282 11.6486 16.8223 11.6312 16.5216 11.5913C16.1201 11.5391 15.7603 11.3861 15.4509 11.1097C15.251 10.9306 15.1015 10.7203 15.0041 10.4769C14.9485 10.3343 14.9311 10.1761 14.8964 10.0266C14.8738 9.92922 14.8199 9.82839 14.8286 9.7345C14.8581 9.42852 14.9294 9.13297 15.091 8.86524C15.1832 8.71051 15.2736 8.55578 15.3657 8.40105C15.4874 8.19764 15.682 8.08464 15.8889 7.99249C16.0644 7.91426 16.247 7.85167 16.4277 7.78735C16.4642 7.77344 16.5094 7.77344 16.5494 7.77344C17.8357 7.77344 19.1202 7.77344 20.4065 7.77344C20.5716 7.77344 20.6099 7.80821 20.6116 7.97337C20.6151 8.28283 20.6116 8.59403 20.6116 8.92956L20.6082 8.92435Z" fill="#2F2222"/>
<path d="M11.3535 7.75781C13.1351 7.77694 14.5796 9.16603 14.5987 10.9776C14.6074 11.8329 14.3015 12.5944 13.7209 13.2186C13.2342 13.7418 12.6015 14.0478 11.901 14.1678C10.8842 14.3434 9.97507 14.0687 9.20156 13.3889C8.54277 12.81 8.17775 12.0589 8.13429 11.1966C8.0891 10.2874 8.35505 9.45288 9.00514 8.77833C9.64654 8.11595 10.467 7.76824 11.35 7.75781H11.3535ZM13.2134 10.9863C13.2394 9.84927 12.3356 9.07214 11.3361 9.08779C10.347 9.10344 9.48836 9.84232 9.48315 10.9915C9.47793 11.9512 10.3001 12.9265 11.5012 12.8517C12.3234 12.8013 13.2638 12.045 13.2151 10.9863H13.2134Z" fill="#2F2222"/>
<path d="M3.20602 11.685C3.20602 11.7458 3.20602 11.7997 3.20602 11.8536C3.20602 12.4569 3.20602 13.0601 3.20602 13.6634C3.20602 13.8181 3.0322 14.0494 2.88619 14.0998C2.76973 14.1398 2.65848 14.1937 2.54202 14.2232C2.34561 14.2736 2.18221 14.1832 2.03794 14.0633C1.85717 13.9138 1.7998 13.7208 1.7998 13.4809C1.8085 11.6397 1.80502 9.7969 1.80502 7.95579C1.80502 7.77325 1.80676 7.77151 1.98753 7.77151C3.21298 7.77151 4.43842 7.76456 5.66386 7.77672C6.02889 7.7802 6.39913 7.81671 6.74851 7.93145C6.91712 7.98709 7.07182 8.08271 7.22478 8.19223C7.45423 8.35566 7.57938 8.58341 7.72018 8.80768C7.77406 8.89286 7.81578 8.9937 7.83142 9.09106C7.86618 9.33097 7.9079 9.57611 7.89921 9.81776C7.89052 10.0368 7.81925 10.2541 7.7758 10.4715C7.69758 10.8644 7.39339 11.0904 7.11527 11.3251C6.99881 11.4242 6.82673 11.4624 6.67551 11.5163C6.2114 11.6832 5.72818 11.5719 5.25538 11.5945C4.61745 11.6258 3.97779 11.6397 3.33987 11.6624C3.29989 11.6624 3.25991 11.6745 3.20776 11.6832L3.20602 11.685ZM4.69394 10.4245C5.09199 10.4245 5.49004 10.4193 5.88809 10.4245C6.19923 10.4297 6.43563 10.3115 6.60771 10.0507C6.78501 9.78473 6.79197 9.58828 6.58686 9.28056C6.43563 9.05455 6.19924 8.93807 5.9385 8.93285C5.06939 8.91547 4.20028 8.91894 3.33117 8.91547C3.17647 8.91547 3.14866 8.94502 3.14866 9.10149C3.14866 9.48049 3.14519 9.85949 3.14519 10.2402C3.14519 10.3671 3.20428 10.4245 3.33639 10.4245C3.79006 10.4245 4.242 10.4245 4.69567 10.4245H4.69394Z" fill="#2F2222"/>
</svg>
