<svg width="142" height="29" viewBox="0 0 142 29" fill="none" xmlns="http://www.w3.org/2000/svg">
<path d="M11.2889 26.0126H10.1973V25.4922H12.9932V26.0126H11.9015V28.8038H11.2889V26.0126Z" fill="#1B1B1B"/>
<path d="M14.9175 27.1484C14.9175 26.1707 15.6714 25.4453 16.6924 25.4453C17.7134 25.4453 18.4673 26.1628 18.4673 27.1484C18.4673 28.134 17.7134 28.8515 16.6924 28.8515C15.6793 28.8515 14.9175 28.1261 14.9175 27.1484ZM17.8547 27.1484C17.8547 26.4703 17.36 25.9815 16.6924 25.9815C16.0248 25.9815 15.5301 26.4703 15.5301 27.1484C15.5301 27.8265 16.0248 28.3154 16.6924 28.3154C17.36 28.3154 17.8547 27.8265 17.8547 27.1484Z" fill="#1B1B1B"/>
<path d="M24.978 25.4922H26.4231C27.4912 25.4922 28.2216 26.1545 28.2216 27.148C28.2216 28.1415 27.4912 28.8038 26.4231 28.8038H24.978V25.4922ZM26.3917 28.2834C27.1299 28.2834 27.6012 27.834 27.6012 27.148C27.6012 26.462 27.1221 26.0126 26.3917 26.0126H25.5906V28.2834H26.3917Z" fill="#1B1B1B"/>
<path d="M30.6162 25.4922H31.2288V28.8038H30.6162V25.4922Z" fill="#1B1B1B"/>
<path d="M36.1219 27.1091H36.7031V28.4258C36.3575 28.7018 35.8785 28.8437 35.4073 28.8437C34.3863 28.8437 33.6323 28.1262 33.6323 27.1406C33.6323 26.155 34.3863 25.4375 35.4151 25.4375C35.9649 25.4375 36.4282 25.6189 36.7424 25.9737L36.3575 26.3521C36.0984 26.0919 35.7999 25.9737 35.4465 25.9737C34.7475 25.9737 34.2528 26.4546 34.2528 27.1406C34.2528 27.8108 34.7475 28.3075 35.4465 28.3075C35.6821 28.3075 35.9099 28.2602 36.1219 28.1341V27.1091Z" fill="#1B1B1B"/>
<path d="M39.2559 25.4922H39.8685V28.8038H39.2559V25.4922Z" fill="#1B1B1B"/>
<path d="M43.1752 26.0126H42.0835V25.4922H44.8794V26.0126H43.7877V28.8038H43.1752V26.0126Z" fill="#1B1B1B"/>
<path d="M49.0644 28.039H47.4151L47.0931 28.8038H46.4648L47.9492 25.4922H48.5539L50.0461 28.8038H49.4021L49.0644 28.039ZM48.8602 27.558L48.2398 26.1072L47.6193 27.558H48.8602Z" fill="#1B1B1B"/>
<path d="M52.1987 25.4922H52.8113V28.2834H54.5391V28.8038H52.1987V25.4922Z" fill="#1B1B1B"/>
<path d="M56.7695 25.4922H57.3821V28.8038H56.7695V25.4922Z" fill="#1B1B1B"/>
<path d="M59.7456 28.4573L59.9577 27.9763C60.2247 28.1892 60.6409 28.339 61.0493 28.339C61.5598 28.339 61.7797 28.1577 61.7797 27.9053C61.7797 27.1878 59.8163 27.6609 59.8163 26.4309C59.8163 25.8947 60.2404 25.4453 61.1436 25.4453C61.5362 25.4453 61.9525 25.5478 62.2431 25.737L62.0467 26.218C61.7483 26.0446 61.4263 25.9578 61.1357 25.9578C60.6252 25.9578 60.421 26.1549 60.421 26.4073C60.421 27.109 62.3766 26.6517 62.3766 27.8659C62.3766 28.3942 61.9446 28.8515 61.0415 28.8515C60.531 28.8515 60.0205 28.6938 59.7456 28.4573Z" fill="#1B1B1B"/>
<path d="M67.2063 28.2913V28.8038H64.7324V25.4922H67.1435V26.0047H65.345V26.872H66.9393V27.3766H65.345V28.2913H67.2063Z" fill="#1B1B1B"/>
<path d="M82.6156 26.0126H81.5239V25.4922H84.3198V26.0126H83.2282V28.8038H82.6156V26.0126Z" fill="#1B1B1B"/>
<path d="M86.2524 27.1484C86.2524 26.1707 87.0064 25.4453 88.0274 25.4453C89.0483 25.4453 89.8023 26.1628 89.8023 27.1484C89.8023 28.134 89.0483 28.8515 88.0274 28.8515C87.0064 28.8515 86.2524 28.1261 86.2524 27.1484ZM89.1897 27.1484C89.1897 26.4703 88.6949 25.9815 88.0274 25.9815C87.3598 25.9815 86.865 26.4703 86.865 27.1484C86.865 27.8265 87.3598 28.3154 88.0274 28.3154C88.6949 28.3154 89.1897 27.8265 89.1897 27.1484Z" fill="#1B1B1B"/>
<path d="M96.0303 28.4573L96.2423 27.9763C96.5093 28.1892 96.9256 28.339 97.334 28.339C97.8445 28.339 98.0644 28.1577 98.0644 27.9053C98.0644 27.1878 96.101 27.6609 96.101 26.4309C96.101 25.8947 96.525 25.4453 97.4282 25.4453C97.8209 25.4453 98.2371 25.5478 98.5277 25.737L98.3314 26.218C98.0329 26.0446 97.7109 25.9578 97.4204 25.9578C96.9099 25.9578 96.7057 26.1549 96.7057 26.4073C96.7057 27.109 98.6612 26.6517 98.6612 27.8659C98.6612 28.3942 98.2293 28.8515 97.3261 28.8515C96.8156 28.8515 96.3052 28.6938 96.0303 28.4573Z" fill="#1B1B1B"/>
<path d="M101.017 25.4922H101.63V28.8038H101.017V25.4922Z" fill="#1B1B1B"/>
<path d="M107.3 28.8038L107.292 26.604L106.208 28.4175H105.933L104.849 26.6277V28.796H104.268V25.4844H104.771L106.082 27.6842L107.37 25.4844H107.873L107.881 28.796H107.3V28.8038Z" fill="#1B1B1B"/>
<path d="M113.284 26.6671C113.284 27.3925 112.75 27.8419 111.878 27.8419H111.132V28.796H110.52V25.4844H111.878C112.742 25.4923 113.284 25.9338 113.284 26.6671ZM112.664 26.6671C112.664 26.2492 112.389 26.0127 111.847 26.0127H111.132V27.3294H111.847C112.389 27.3294 112.664 27.085 112.664 26.6671Z" fill="#1B1B1B"/>
<path d="M115.641 25.4922H116.253V28.2834H117.981V28.8038H115.641V25.4922Z" fill="#1B1B1B"/>
<path d="M120.212 25.4922H120.824V28.8038H120.212V25.4922Z" fill="#1B1B1B"/>
<path d="M124.075 26.0047V27.0139H125.67V27.5343H124.075V28.8038H123.463V25.4922H125.874V26.0047H124.075Z" fill="#1B1B1B"/>
<path d="M129.636 27.6368V28.8038H129.023V27.6447L127.728 25.4922H128.379L129.345 27.1086L130.319 25.4922H130.924L129.636 27.6368Z" fill="#1B1B1B"/>
<path d="M74.1419 28.2937C74.632 28.2937 75.0293 27.8948 75.0293 27.4027C75.0293 26.9106 74.632 26.5117 74.1419 26.5117C73.6517 26.5117 73.2544 26.9106 73.2544 27.4027C73.2544 27.8948 73.6517 28.2937 74.1419 28.2937Z" fill="#F16622"/>
<path d="M78.5941 18.5151L78.8768 18.9645C79.8036 20.4626 78.5941 21.9765 76.8427 21.9765H76.7014C75.9317 21.9765 75.2092 21.5744 74.8008 20.9199L72.9081 18.2312L70.387 14.4387L70.2771 14.2494C69.4524 13.1298 69.7901 13.3664 68.0938 13.3664H63.3894V21.9686H58.6851V0.238281H72.5389C74.4945 0.238281 76.2616 0.892714 77.5417 1.94927C78.8219 3.00582 79.6151 4.4645 79.6151 6.08087C79.6151 8.4384 79.1753 11.4661 76.7249 12.4044C76.0888 12.6567 75.4055 12.8065 74.6908 12.8696L78.5941 18.5151ZM72.5311 9.06918C72.8688 9.06918 73.2065 9.0061 73.5128 8.87995C74.3767 8.57244 74.9422 7.6657 74.9422 6.52241C74.9422 5.4974 74.4866 5.0322 74.2275 4.81143C73.929 4.55911 73.3636 4.25161 72.5311 4.25161H63.3894V9.09283L72.5311 9.06918Z" fill="#E01E26"/>
<path d="M86.7789 6.10459V8.12308H96.219C97.2871 8.12308 98.151 8.9904 98.151 10.0627C98.151 11.1351 97.2871 12.0024 96.219 12.0024H86.7789V16.1024C86.7789 17.1905 87.8705 18.0894 89.1899 18.0894H101.465V21.9687H89.1899C85.2788 21.9687 82.1138 19.3273 82.1138 16.0945V6.10459C82.1138 2.87185 85.271 0.230469 89.1899 0.230469H101.465V4.10976H89.1899C87.8705 4.11764 86.7789 5.0165 86.7789 6.10459Z" fill="#E01E26"/>
<path d="M115.075 21.9682H115.154L115.075 22.0312V21.9682ZM141.306 0.285156L131.152 11.1424L130.586 11.7338V19.8077C130.586 20.9826 129.636 21.9445 128.458 21.9445H128.026C126.856 21.9445 125.898 20.9905 125.898 19.8077V11.789L125.261 11.1424L115.114 0.285156H121.036L128.23 7.98854L135.424 0.285156H141.306Z" fill="#E01E26"/>
<path d="M56.007 21.9774L46.4805 2.04475H46.4727C45.9779 0.940889 44.6114 0.144531 42.7579 0.144531C40.7552 0.144531 39.5457 0.940889 39.0431 2.04475H39.0353L29.5166 21.9774H34.8807L42.7029 5.60076C42.7186 5.60076 42.7422 5.60076 42.7579 5.60076C42.7815 5.60076 42.7972 5.60076 42.8207 5.60076L50.643 21.9774H56.007Z" fill="#E01E26"/>
<path d="M20.6577 5.69328C20.6263 5.62232 20.5949 5.55136 20.5635 5.48828L20.6577 5.69328Z" fill="#E01E26"/>
<path d="M35.0537 0.191406L25.4251 21.9375H22.0166L17.8698 11.916L13.7231 21.9375H10.3146L0.693848 0.191406H6.43488L12.2859 12.8464L14.9718 5.99457L15.1525 5.53725C15.1603 5.52148 15.1682 5.50572 15.176 5.48995C15.8043 4.1732 16.8724 3.913 17.8855 3.913C18.8672 3.913 19.8804 4.06281 20.5715 5.48995C20.6029 5.55302 20.6343 5.62399 20.6657 5.69495C20.6657 5.70283 20.6736 5.71072 20.6736 5.7186L20.7286 5.85264L23.5794 12.9095L29.3126 0.191406H35.0537Z" fill="#E01E26"/>
<path d="M15.1686 5.48828C15.1606 5.50421 15.1526 5.52013 15.1445 5.53606L15.1686 5.48828Z" fill="#E01E26"/>
<path d="M14.9717 5.99638C15.0267 5.8308 15.0816 5.68099 15.1523 5.53906L14.9717 5.99638Z" fill="#E01E26"/>
<path d="M122.356 17.958V22.1211H113.167C111.848 22.1211 110.607 21.8688 109.476 21.4036C107.819 20.7176 106.468 19.598 105.675 18.2339C105.109 17.3035 104.811 16.2785 104.811 15.1904V2.69311C104.811 1.41578 105.848 0.375 107.12 0.375H107.206C108.479 0.375 109.515 1.41578 109.515 2.69311V15.285C109.547 16.9408 110.898 17.9106 112.712 17.9264L122.356 17.958Z" fill="#E01E26"/>
<path d="M42.7578 19.382C44.1414 19.382 45.2631 18.2559 45.2631 16.8668C45.2631 15.4777 44.1414 14.3516 42.7578 14.3516C41.3741 14.3516 40.2524 15.4777 40.2524 16.8668C40.2524 18.2559 41.3741 19.382 42.7578 19.382Z" fill="#F16622"/>
</svg>
